<?xml version="1.0" encoding="UTF-8" standalone="no"?>
<svg
   version="1.0"
   width="648.95599pt"
   height="397pt"
   viewBox="0 0 648.95599 397"
   preserveAspectRatio="xMidYMid"
   id="svg6"
   sodipodi:docname="ninja-logo-fit.svg"
   inkscape:version="1.4.1-rc (d9e8dc1fe0, 2025-03-10)"
   xmlns:inkscape="http://www.inkscape.org/namespaces/inkscape"
   xmlns:sodipodi="http://sodipodi.sourceforge.net/DTD/sodipodi-0.dtd"
   xmlns="http://www.w3.org/2000/svg"
   xmlns:svg="http://www.w3.org/2000/svg">
  <defs
     id="defs6" />
  <sodipodi:namedview
     id="namedview6"
     pagecolor="#505050"
     bordercolor="#000000"
     borderopacity="1"
     inkscape:showpageshadow="0"
     inkscape:pageopacity="0"
     inkscape:pagecheckerboard="1"
     inkscape:deskcolor="#505050"
     inkscape:document-units="pt"
     inkscape:zoom="0.39167188"
     inkscape:cx="381.69704"
     inkscape:cy="366.3781"
     inkscape:window-width="1519"
     inkscape:window-height="1122"
     inkscape:window-x="2004"
     inkscape:window-y="76"
     inkscape:window-maximized="0"
     inkscape:current-layer="svg6" />
  <g
     transform="matrix(0.1,0,0,-0.1,-496.2451,1113)"
     fill="#000000"
     stroke="none"
     id="g6">
    <path
       d="m 5544,10894 c -41,-64 -144,-262 -144,-276 0,-15 39,-3 195,59 77,31 246,91 375,133 205,68 231,79 200,84 -54,9 -523,56 -558,56 -28,0 -37,-7 -68,-56 z"
       id="path1" />
    <path
       d="m 6354,10810 c -545,-167 -1001,-352 -1045,-424 -42,-69 -132,-380 -163,-561 -87,-516 -3,-1174 231,-1812 36,-98 50,-124 67,-128 32,-7 4217,-445 4252,-445 30,0 33,6 137,218 207,425 253,549 327,889 65,301 90,531 90,840 0,273 -29,470 -110,747 -32,110 -114,343 -125,354 -1,1 -771,83 -1711,182 -940,99 -1727,181 -1749,184 -30,4 -81,-7 -201,-44 z m 209,-891 c 56,-11 244,-56 417,-99 435,-108 629,-150 696,-150 65,0 191,27 639,138 630,157 658,159 1049,81 155,-32 321,-82 461,-141 l 80,-34 -3,-70 c -14,-351 -182,-595 -528,-768 -215,-107 -511,-179 -729,-178 -131,1 -223,18 -555,103 -406,105 -383,105 -885,-18 l -270,-66 -225,1 c -216,1 -230,2 -348,31 -299,75 -489,176 -665,354 -178,180 -232,293 -244,503 l -6,111 59,23 c 478,179 795,233 1057,179 z M 5423,8985 c 67,-63 150,-136 184,-164 78,-62 229,-147 393,-222 258,-117 416,-153 680,-153 208,0 323,15 640,84 321,70 475,82 475,36 0,-13 -11,-23 -34,-31 -37,-12 -43,-19 -67,-78 -13,-33 -17,-37 -31,-26 -25,21 -111,13 -373,-35 -316,-57 -441,-71 -599,-63 -464,23 -912,225 -1232,554 -117,119 -188,213 -163,213 3,0 60,-52 127,-115 z"
       id="path2" />
    <path
       d="m 6080,9685 c -118,-25 -280,-85 -280,-104 0,-21 144,-65 264,-81 45,-6 85,-15 90,-20 5,-5 15,-46 22,-92 24,-163 86,-274 192,-345 76,-51 144,-73 228,-73 128,0 223,52 320,177 l 66,84 26,-17 c 15,-9 65,-47 112,-84 93,-74 148,-110 168,-110 39,0 -21,135 -115,258 -135,177 -373,340 -578,397 -84,23 -423,30 -515,10 z m 587,-242 c 29,-19 63,-91 63,-132 0,-42 -50,-94 -107,-111 -38,-12 -46,-11 -90,11 -63,31 -96,81 -90,132 7,49 49,104 90,116 39,12 103,4 134,-16 z"
       id="path3" />
    <path
       d="m 8858,9681 c -167,-37 -351,-108 -444,-172 -156,-107 -348,-351 -356,-451 -5,-56 29,-49 104,19 57,54 198,158 202,151 23,-40 70,-98 114,-141 115,-109 193,-138 316,-118 91,15 155,51 236,131 70,69 68,65 157,315 13,39 31,75 39,81 8,6 38,15 67,18 99,13 277,62 277,76 0,12 -99,48 -215,76 -141,36 -372,42 -497,15 z m -48,-221 c 5,0 23,-12 41,-27 39,-33 73,-105 63,-136 -11,-37 -55,-76 -105,-92 -43,-15 -51,-15 -86,0 -46,20 -87,58 -103,96 -23,54 29,123 116,154 21,8 45,12 52,10 8,-3 17,-5 22,-5 z"
       id="path4" />
    <path
       d="m 10475,9228 c -2,-7 -6,-42 -9,-78 -4,-36 -23,-173 -43,-306 -20,-133 -33,-252 -29,-267 4,-16 59,-74 149,-155 179,-163 425,-414 504,-514 99,-125 205,-313 228,-403 l 7,-30 10,25 c 14,36 13,249 -1,360 -53,406 -197,761 -421,1035 -106,130 -345,345 -383,345 -4,0 -9,-6 -12,-12 z"
       id="path5" />
    <path
       d="m 10246,8168 c -3,-7 -10,-38 -16,-68 -19,-84 -75,-229 -156,-402 -41,-87 -74,-168 -74,-181 0,-13 13,-44 29,-69 26,-41 35,-47 73,-53 65,-9 510,-55 532,-55 17,0 18,6 13,53 -19,155 -151,454 -294,667 -77,112 -99,135 -107,108 z"
       id="path6" />
  </g>
</svg>
